<?xml version="1.0" encoding="utf-8"?>
<!-- Generator: Adobe Illustrator 16.0.0, SVG Export Plug-In . SVG Version: 6.00 Build 0)  -->
<!DOCTYPE svg PUBLIC "-//W3C//DTD SVG 1.1//EN" "http://www.w3.org/Graphics/SVG/1.1/DTD/svg11.dtd">
<svg version="1.1" id="Layer_1" xmlns="http://www.w3.org/2000/svg" xmlns:xlink="http://www.w3.org/1999/xlink" x="0px" y="0px"
	 width="538.074px" height="581.92px" viewBox="-0.001 0 538.074 581.92" enable-background="new -0.001 0 538.074 581.92"
	 xml:space="preserve">
<path fill="#976349" stroke="#000000" stroke-width="4" stroke-miterlimit="10" d="M163.621,8.058
	c-0.971,0.311-4.48,1.46-8.511,2.99c0.75-0.34,1.49-0.67,2.24-0.99c27.67-11.79,56.83-9.3,83.01-1.12
	c5.051,1.57,9.99,3.36,14.78,5.3c40.98,16.561,71.5,44.08,71.5,44.08c155-79,111.05,15.78,107.05,26.78c-20,38-13,65-13,65
	s36.811,14.061,57.811,20.061c3.569,1.439,6.949,2.92,10.14,4.439c0.53,0.25,1.06,0.51,1.58,0.76c0.479,0.24,0.96,0.471,1.43,0.71
	c-0.45-0.17-0.899-0.35-1.37-0.52c-0.68-0.26-1.39-0.53-2.12-0.8c-11.13-4.07-26.85-8.761-43-14.261
	c-0.119-0.05-0.229-0.09-0.35-0.119c-15.8-5.41-31.99-11.58-44.649-18.721c-0.011-0.01-0.011-0.01-0.011-0.01
	c-0.02,0-0.05-0.02-0.069-0.03c-8.641-4.87-15.62-10.189-19.721-16.01c-9.02-9.02-22.63-40.02-61.34-71.13
	c-16.3-13.09-37.05-26.21-63.779-37.72c-5.82-2.5-11.91-4.92-18.311-7.25c-2.75-1.011-5.55-1.99-8.41-2.96
	c-10.77-0.681-36.55-6.5-64.64,1.439c0,0-0.04,0.01-0.1,0.03C163.741,8.018,163.691,8.038,163.621,8.058z"/>
<path fill="#976349" stroke="#000000" stroke-width="3" stroke-miterlimit="10" d="M481.691,329.107c-75,62-133,44.951-133,44.951
	s14-63.951,19-94.961c-51.16-87.43-114-86-132-90.12c-53-28.13-76.91,117.13-76.91,117.13
	c-61.899-19.01-91.939-118.729-87.76-165.34c1.601-17.77,12.04-42.939,19.11-58.24c4.53-6.819,12.28-15.109,25.18-21.1
	c3.37-1.56,7.101-2.96,11.22-4.14h0.011c14.68-4.221,34.279-5.54,60.37-0.9c0.239,0.04,0.479,0.08,0.729,0.13
	c3.3,0.59,6.71,1.28,10.22,2.08c14.58,3.5,36.29,5.64,68.521,23.96c0.01,0.01,0.01,0.01,0.02,0.021c0,0,0,0,0.011,0
	c15.42,8.77,33.26,21.25,53.869,39.369v0.011h0.011c10.17,8.93,21.01,19.229,32.569,31.14c3.4,2.95,7.29,6.65,12.29,10.68v0.011
	c0,0,0,0,0.011,0c10.58,8.52,26.14,18.479,52.59,25.77c12.149,3.35,26.6,6.13,43.93,7.94c5.74,0.6,11.79,1.1,18.18,1.47
	c3.34,0.64,11.09,1.979,19.63,6.51c0.49,0.26,0.971,0.53,1.46,0.82c6.721,3.82,13.79,9.68,19.5,18.75
	c2.021,3.21,3.881,6.83,5.48,10.899c2.53,6.4,4.439,13.94,5.45,22.801c0,0,13.45-32.021-8.79-60.04
	C565.761,248.058,496.551,313.428,481.691,329.107z"/>
<path fill="#804839" d="M171.385,254.226c0,0-83.306-57.59,6.873-115.123c7.6-4.5,34.6-19,96.6,6.5c13,6,169,71.5,127,187.001
	l76.642-3.377c0,0-60.104,56.881-131.392,45.477l12.874-96.768C359.981,277.936,228.52,103.335,171.385,254.226z"/>
<path id="body_1_" fill="#C52327" stroke="#000000" stroke-width="3" stroke-miterlimit="10" d="M206.358,188.103
	c0,0-104.536,121.88-19,275.001c8,17,103,169,141,99c1.701-6.268,11-13-7-82c0,0-9-25,39-138c5-19,9-19,15-66.001
	C375.358,276.103,295.358,160.103,206.358,188.103z"/>
<path id="mustache_4_" fill="#9E1B20" d="M183.356,225.203l10.58-4.203c0,0-14.775,26.636-11.998,40.585
	c2.778,13.949,45.778-8.051,45.778-8.051l3.333-27.332h7l-7,28.998l58.667,20.501c0,0,12.334-33.831-5.667-49.499
	c0,0,61.412,30.315,81.078,97.981c0,0,6.942-29.152,8.728-42.98c0.178-1.37,0.494-4.379-0.243-5.402
	c-25.947-36-51.34-57.89-79.257-74.098c-12.667-6.667-20.542-12.375-56.542-17.542c0,0-28.141,1.784-31.125,4.917
	C198.231,197.953,191.091,212.143,183.356,225.203z"/>
<g id="eyes_1_">
	<path fill="#FFFFFF" stroke="#000000" stroke-width="2" stroke-miterlimit="10" d="M226.358,269.769
		c-5.01,27.558-14.96,43.825-22,45.334c-6.479,1.389-23.595-4.633-19-39.667c5.333-40.667,26.04-47,32.667-47
		S232.358,236.769,226.358,269.769z"/>
	<path fill="#FFFFFF" stroke="#000000" stroke-width="2" stroke-miterlimit="10" d="M290.358,278.768
		c2.24,19.942-9,36.335-37,36.335c-14.728,0-26.667-16.268-26.667-36.335c0-20.065,13.272-39,28-39
		C269.419,239.768,287.025,249.101,290.358,278.768z"/>
	<path d="M220.956,263.824c-0.612-0.056-1.232,0.314-1.827,1.021c0.063-0.01,0.126-0.021,0.19-0.021
		c1.456,0,2.637,2.492,2.637,5.568s-1.181,5.569-2.637,5.569s-2.636-2.493-2.636-5.569c0-0.066,0.003-0.133,0.005-0.2
		c-0.602,2.12-1.068,4.633-1.313,7.355c-0.698,7.793,0.669,14.284,3.052,14.498c2.384,0.213,4.882-5.932,5.581-13.726
		S223.339,264.038,220.956,263.824z"/>
	<path d="M256.858,289.602c0-1.381,1.157-2.501,2.583-2.501c0.679,0,1.29,0.258,1.75,0.671c0.526-1.768,0.833-3.813,0.833-6.004
		c0-6.627-2.761-12-6.167-12c-0.491,0-0.968,0.124-1.426,0.335c1.428,0.599,2.426,1.937,2.426,3.499
		c0,2.117-1.828,3.833-4.083,3.833c-0.938,0-1.793-0.309-2.481-0.809c-0.381,1.56-0.602,3.299-0.602,5.142
		c0,6.627,2.762,12,6.167,12c1.156,0,2.233-0.629,3.158-1.706C257.793,291.864,256.858,290.841,256.858,289.602z"/>
</g>
<g id="eyebrowns_1_">
	<g>
		<path fill="#282A34" stroke="#000000" stroke-width="2" stroke-miterlimit="10" d="M187.691,238.101c0,0,39.667-75,46-17.333
			C233.691,220.768,226.025,183.101,187.691,238.101z"/>
		<g>
			<path fill="#282A34" d="M298.692,257.434c0,0-1.901-50.447-32.461-50.855c-8.423-0.113-15.539,0.522-23.206,17.522
				C243.025,224.101,275.359,193.434,298.692,257.434z"/>
			<path fill="none" stroke="#000000" stroke-width="2" stroke-miterlimit="10" d="M298.692,257.434c0,0-1.901-50.447-32.461-50.855
				c-8.423-0.113-15.539,0.522-23.206,17.522C243.025,224.101,275.359,193.434,298.692,257.434z"/>
		</g>
	</g>
</g>
<path fill="#204323" d="M115.311,61.428c-12.899,5.99-20.649,14.28-25.18,21.1c3.47-7.54,6.14-12.689,6.52-13.359
	c2.86-5.05,5.801-9.771,8.83-14.16L115.311,61.428z"/>
<path fill="none" stroke="#000000" stroke-width="3" stroke-miterlimit="10" d="M84.251,94.798c0.06-0.26,0.55-2.12,1.81-4.94
	C85.451,91.478,84.851,93.118,84.251,94.798z"/>
<path fill="#A51B21" stroke="#000000" stroke-width="2" stroke-miterlimit="10" d="M143.521,17.278
	c-9.83,10.69-16.979,40.011-16.979,40.011h-0.011c-4.119,1.18-7.85,2.58-11.22,4.14l-9.83-6.42
	C117.231,37.857,130.101,25.627,143.521,17.278z"/>
<path fill="#3E783E" stroke="#000000" stroke-width="2" stroke-miterlimit="10" d="M186.911,56.388
	c-26.091-4.64-45.69-3.32-60.37,0.9c0,0,7.149-29.32,16.979-40.011c3.82-2.39,7.67-4.449,11.561-6.22c0.01,0,0.02,0,0.029-0.01
	c4.03-1.53,7.54-2.68,8.511-2.99c0.069-0.02,0.12-0.04,0.159-0.05c0.061-0.021,0.101-0.03,0.101-0.03S173.821,52.238,186.911,56.388
	z"/>
<path fill="none" stroke="#000000" stroke-width="3" stroke-miterlimit="10" d="M157.351,10.058c2.11-0.75,4.18-1.43,6.271-2
	c-0.971,0.311-4.48,1.46-8.511,2.99c-0.01,0.01-0.02,0.01-0.029,0.01c-3.891,1.771-7.74,3.83-11.561,6.22
	c-13.42,8.351-26.29,20.58-38.04,37.73c-3.029,4.39-5.97,9.11-8.83,14.16c-0.38,0.67-3.05,5.819-6.52,13.359
	c-1.85,2.771-3.16,5.301-4.07,7.33c15.9-41.91,38.08-63.939,60.431-75.149c0-0.011,0.01-0.011,0.01-0.011
	c0.1-0.05,0.2-0.1,0.3-0.149C150.321,12.798,153.851,11.308,157.351,10.058z"/>
<path fill="#A51B21" stroke="#000000" stroke-width="2" stroke-miterlimit="10" d="M236.931,9.498
	c-19.729,5.25-48.17,45.43-49.29,47.02c-0.25-0.05-0.49-0.09-0.729-0.13c-13.091-4.15-23.03-48.41-23.03-48.41
	c28.09-7.939,53.87-2.12,64.64-1.439C231.381,7.508,234.181,8.488,236.931,9.498z"/>
<path fill="#3E783E" stroke="#000000" stroke-width="2" stroke-miterlimit="10" d="M266.381,82.558
	c-32.23-18.32-53.94-20.46-68.521-23.96c-3.51-0.8-6.92-1.49-10.22-2.08c1.12-1.59,29.561-41.77,49.29-47.02
	c6.4,2.33,12.49,4.75,18.311,7.25C255.741,28.098,258.261,74.458,266.381,82.558z"/>
<path fill="#A51B21" stroke="#000000" stroke-width="2" stroke-miterlimit="10" d="M319.021,54.468
	c-0.08,8.36-51.76,27.79-52.609,28.11c-0.011,0-0.011,0-0.011,0c-0.01-0.011-0.01-0.011-0.02-0.021
	c-8.12-8.1-10.64-54.46-11.14-65.81C281.971,28.258,302.721,41.377,319.021,54.468z"/>
<path fill="#3E783E" stroke="#000000" stroke-width="2" stroke-miterlimit="10" d="M320.281,121.948
	c-20.609-18.119-38.449-30.6-53.869-39.369c0.85-0.32,52.529-19.75,52.609-28.11L320.281,121.948z"/>
<path fill="#A51B21" stroke="#000000" stroke-width="2" stroke-miterlimit="10" d="M400.081,140.897
	c-9.82,17.53-33.7,21.96-34.311,22.07c0.61-0.11,0,0,0,0l-0.609-1.14c-7.54-37.98-2.23-56.137-2.23-56.137l-41.347,15.084l0,0
	l-1.293-0.781l-1.271-66.236c38.71,31.11,52.32,62.11,61.34,71.13C384.461,130.708,391.441,136.028,400.081,140.897z"/>
<path fill="#3E783E" stroke="#000000" stroke-width="2" stroke-miterlimit="10" d="M365.151,163.778
	c-5-4.029-8.89-7.729-12.29-10.68c-11.56-11.91-21.376-22.22-31.546-31.15l43.167-16.45
	C364.482,105.497,357.611,125.798,365.151,163.778z"/>
<path fill="#3E783E" stroke="#000000" stroke-width="2" stroke-miterlimit="10" d="M417.751,189.558
	c-26.45-7.29-42.01-17.25-52.59-25.77c0.609-0.11,25.1-4.65,34.92-22.181c0.02,0.011,0.05,0.03,0.069,0.03c0,0,0,0,0.011,0.01
	C401.131,143.107,415.871,165.508,417.751,189.558z"/>
<path fill="#A51B21" stroke="#000000" stroke-width="2" stroke-miterlimit="10" d="M444.811,159.388l-27.06,29.19
	c-1.88-24.051-16.62-46.45-17.59-47.91C412.821,147.808,429.011,153.978,444.811,159.388z"/>
<path fill="#3E783E" stroke="#000000" stroke-width="2" stroke-miterlimit="10" d="M461.681,197.498
	c-17.33-1.811-31.78-4.59-43.93-7.94l27.06-29.189c0.12,0.029,0.229,0.069,0.35,0.119L461.681,197.498z"/>
<path fill="#A51B21" stroke="#000000" stroke-width="2" stroke-miterlimit="10" d="M488.16,174.748
	c-14.399,4.76-26.479,21.63-26.479,21.63l-16.521-35.891C461.311,165.988,477.031,170.678,488.16,174.748z"/>
<path fill="#3E783E" stroke="#000000" stroke-width="2" stroke-miterlimit="10" d="M499.49,205.478
	c-8.54-4.53-16.29-5.87-19.63-6.51c-6.39-0.37-12.439-0.87-18.18-1.47c0,0,12.08-17.99,26.479-22.75c0.73,0.27,1.44,0.54,2.12,0.8
	L499.49,205.478z"/>
<path fill="#A51B21" stroke="#000000" stroke-width="2" stroke-miterlimit="10" d="M520.45,195.567l-18.22,9.91
	c-0.49-0.29-1.28-1.149-2.74-0.81l-9.21-29.931c0.471,0.17,0.92,0.351,1.37,0.521C504.12,181.508,513.551,188.348,520.45,195.567z"
	/>
<path fill="#3E783E" stroke="#000000" stroke-width="2" stroke-miterlimit="10" d="M520.45,197.498v27.55
	c-5.71-9.07-12.779-14.93-19.5-18.75L520.45,197.498z"/>
<path fill="#A51B21" stroke="#000000" stroke-width="2" stroke-miterlimit="10" d="M531.381,258.748
	c-1.011-8.86-2.92-16.4-5.45-22.801c-1.601-4.069-3.46-7.689-5.48-10.899v-28.67c0.721,0.74,1.41,1.49,2.07,2.24
	c0.02,0.029,0.05,0.06,0.07,0.09C544.83,226.728,531.381,258.748,531.381,258.748z"/>
<path fill="none" stroke="#000000" stroke-width="3" stroke-miterlimit="10" d="M522.521,198.618c-0.66-0.75-1.35-1.5-2.07-2.24
	c-6.899-7.22-16.33-14.061-28.8-20.311c3.36,1.32,6.17,2.57,8.25,3.761C509.901,185.538,517.221,191.968,522.521,198.618z"/>
<polyline fill="none" stroke="#000000" stroke-miterlimit="10" points="115.311,61.428 115.321,61.438 126.531,57.288 "/>
<path fill="none" stroke="#000000" stroke-miterlimit="10" d="M186.911,56.388c0.229,0.07,0.47,0.13,0.699,0.18
	c0,0,0.011-0.02,0.03-0.05"/>
<line fill="none" stroke="#000000" stroke-miterlimit="10" x1="499.49" y1="205.478" x2="499.901" y2="206.828"/>
<path fill="none" stroke="#000000" stroke-miterlimit="10" d="M490.281,175.548l-0.06-0.19l-0.34-1.109
	c-0.42,0.1-0.83,0.22-1.24,0.35c-0.16,0.05-0.32,0.1-0.48,0.15"/>
<path d="M326.609,331.793c0,0,18.594,105.5-61.454,113c-9.046-1-46.413,6.438-46.713-38c1.667-4.5,3.85-7.38,13.871-13.716
	l-1.872-9.807c0,0-21.949-7.479-25.142-16.479S319.609,361.293,326.609,331.793z"/>
<path fill="#89151C" d="M217.609,421.793c0,0,6.077,10.104,18.039,17.354c14.497,8.787,37.639,13.379,69.078-9.295
	c0,0-4.412,45.768-57.383,39.25C241.609,467.793,187.231,448.327,217.609,421.793z"/>
<polyline fill="none" stroke="#000000" stroke-miterlimit="10" points="444.811,160.368 445.011,160.147 445.16,160.488 "/>
<path fill="none" stroke="#000000" stroke-miterlimit="10" d="M400.081,141.607c0-0.01,0.01-0.029,0.02-0.04
	c0,0,0.021,0.021,0.05,0.07"/>
<path fill="#FFFFFF" stroke="#000000" stroke-miterlimit="10" d="M231.442,394.793c0,0-13.333,40.5,37.167,33.5
	c9.5-2.5,34.898-4.046,56.699-45.021c0,0-12.674,82.115-81.688,60.461C229.634,439.344,197.776,417.793,231.442,394.793z"/>
<path fill="none" stroke="#000000" stroke-miterlimit="10" d="M255.241,16.748c-0.07-1.601-0.101-2.511-0.101-2.511l-14.78-5.3
	c-1.109,0.05-2.25,0.24-3.43,0.561"/>
<path fill="none" stroke="#000000" stroke-miterlimit="10" d="M155.081,11.058c-2.74,1.04-5.7,2.25-8.28,3.49
	c-0.1,0.05-0.2,0.1-0.3,0.149c0,0-0.01,0-0.01,0.011c-1.021,0.64-2.011,1.51-2.971,2.569"/>
<line fill="none" stroke="#000000" stroke-miterlimit="10" x1="105.481" y1="55.008" x2="105.471" y2="54.998"/>
<g>
	<path d="M380.718,330.461c0,0,0.264-0.275,0.717-0.845c0.451-0.567,1.072-1.438,1.768-2.6c0.697-1.158,1.444-2.629,2.135-4.375
		c0.684-1.748,1.334-3.773,1.729-6.045c0.4-2.267,0.655-4.754,0.584-7.385c-0.106-2.625-0.332-5.396-0.97-8.197
		c-0.116-0.707-0.32-1.404-0.504-2.109c-0.195-0.702-0.352-1.418-0.58-2.121c-0.489-1.397-0.883-2.839-1.49-4.227
		c-0.28-0.7-0.563-1.402-0.847-2.105c-0.305-0.696-0.646-1.381-0.968-2.073c-0.335-0.688-0.633-1.392-1-2.066l-1.101-2.023
		c-0.704-1.363-1.549-2.655-2.35-3.959c-0.774-1.319-1.678-2.558-2.545-3.8c-0.439-0.617-0.856-1.243-1.306-1.846
		c-0.457-0.597-0.911-1.19-1.363-1.782c-0.907-1.178-1.748-2.378-2.683-3.485c-0.888-1.143-1.761-2.265-2.615-3.362
		c-0.892-1.073-1.757-2.127-2.581-3.172c-0.416-0.521-0.826-1.033-1.23-1.538c-0.423-0.489-0.84-0.972-1.25-1.446
		c-0.806-0.964-1.584-1.895-2.332-2.789c-1.528-1.769-2.931-3.39-4.173-4.827c-1.215-1.472-2.356-2.678-3.247-3.726
		c-1.805-2.071-2.793-3.313-2.793-3.313l0.269-0.298c0,0,1.302,0.896,3.507,2.564c1.097,0.84,2.455,1.836,3.903,3.102
		c0.742,0.615,1.502,1.301,2.322,2.007c0.81,0.717,1.694,1.436,2.528,2.279c1.69,1.664,3.604,3.396,5.413,5.438
		c0.932,0.996,1.869,2.038,2.821,3.107c0.929,1.095,1.821,2.26,2.757,3.42c0.932,1.163,1.795,2.416,2.659,3.688
		c0.433,0.636,0.866,1.275,1.303,1.918c0.423,0.653,0.813,1.333,1.225,2.002c0.81,1.347,1.654,2.682,2.391,4.096
		c0.758,1.399,1.553,2.781,2.212,4.242l1.041,2.157c0.346,0.718,0.625,1.471,0.938,2.202c0.301,0.737,0.62,1.465,0.903,2.206
		c0.261,0.75,0.521,1.498,0.779,2.242c0.56,1.472,0.907,3.009,1.345,4.487c0.202,0.746,0.333,1.507,0.501,2.25
		c0.157,0.747,0.333,1.483,0.421,2.233c0.107,0.743,0.215,1.481,0.321,2.212c0.08,0.733,0.121,1.467,0.183,2.188
		c0.073,0.721,0.095,1.438,0.091,2.146c-0.005,0.708,0.032,1.404-0.016,2.095c-0.096,2.758-0.521,5.34-1.082,7.67
		c-0.558,2.334-1.359,4.391-2.174,6.148c-0.818,1.76-1.685,3.217-2.488,4.352c-1.586,2.279-2.798,3.344-2.798,3.344L380.718,330.461
		z"/>
</g>
<g>
	<path d="M178.497,214.084c0,0,0.212-1.184,0.875-3.155c0.656-1.974,1.802-4.746,3.654-7.827c0.909-1.551,2.027-3.155,3.312-4.777
		c1.263-1.646,2.813-3.197,4.46-4.757c1.688-1.513,3.528-2.984,5.53-4.294c0.987-0.674,2.043-1.259,3.084-1.88
		c1.082-0.538,2.136-1.162,3.257-1.633c1.109-0.497,2.215-1.018,3.358-1.417l1.7-0.641c0.575-0.186,1.147-0.369,1.717-0.553
		c0.573-0.18,1.145-0.358,1.711-0.538c0.577-0.141,1.15-0.281,1.722-0.421c0.573-0.133,1.142-0.266,1.707-0.396
		c0.57-0.093,1.138-0.187,1.701-0.278c1.129-0.154,2.235-0.348,3.331-0.381c1.092-0.063,2.158-0.161,3.198-0.148
		c1.038,0.014,2.047,0.025,3.023,0.037c0.976,0.01,1.912,0.144,2.811,0.204c1.801,0.124,3.434,0.386,4.871,0.646
		c0.717,0.13,1.39,0.252,2.01,0.363c0.614,0.152,1.179,0.292,1.688,0.418c2.031,0.521,3.167,0.888,3.167,0.888l-0.055,0.396
		c0,0-1.203,0.097-3.267,0.143c-1.031,0.008-2.279,0.048-3.706,0.125c-0.713,0.041-1.468,0.043-2.263,0.067
		c-0.792,0.049-1.626,0.102-2.496,0.154c-1.737,0.065-3.601,0.271-5.567,0.422c-1.955,0.26-4.021,0.428-6.127,0.787
		c-0.528,0.07-1.063,0.14-1.602,0.211c-0.533,0.095-1.069,0.191-1.609,0.288c-0.542,0.09-1.087,0.181-1.636,0.271
		c-0.542,0.119-1.086,0.239-1.633,0.359c-0.547,0.123-1.097,0.247-1.648,0.371l-1.627,0.478c-1.1,0.292-2.16,0.704-3.232,1.091
		c-1.08,0.373-2.094,0.894-3.145,1.332c-1.007,0.519-2.035,1.004-3.001,1.576c-1.957,1.108-3.774,2.383-5.465,3.712
		c-1.655,1.366-3.203,2.77-4.54,4.23c-1.351,1.447-2.551,2.9-3.549,4.323c-2.039,2.822-3.349,5.444-4.188,7.303
		c-0.833,1.871-1.146,2.993-1.146,2.993L178.497,214.084z"/>
</g>
<path fill="#9E1B20" d="M237.702,532.827c0,0,74.146,57.492,84.458-43.842c0,0,7.477,27.56,7.953,37.506
	c0.901,18.804-11.786,64.828-67.468,32.586C254.148,554.157,237.702,532.827,237.702,532.827z"/>
<path fill="#720F15" d="M262.645,559.077c0,0,17.659,16.953,34.509,19.449c8.873,1.314,25.367,0.092,32.029-22.322
	c4.131-13.899,2.101-20.045,1.009-29.313C330.192,526.893,319.106,571.077,262.645,559.077z"/>
<path opacity="0.3" fill="#8D5C3C" enable-background="new    " d="M371.233,111.53c0,0,17.082,28.799,48.082,37.799
	c0,0-2.5-30,6-47.833C425.314,101.494,377.981,115.994,371.233,111.53z"/>
<path fill="#FFFFFF" d="M205.3,366.793c0,0,36.107,35.717,84.086-3.5L205.3,366.793z"/>
<line fill="none" stroke="#000000" stroke-miterlimit="10" x1="271.025" y1="364.104" x2="273.208" y2="374.531"/>
<g id="mustache_3_">
	<path fill="#282A34" stroke="#000000" stroke-width="3" stroke-miterlimit="10" d="M228.52,345.098c0,0,9.838-32.992-34.162-25.33
		c-3.667,0.664-19.334,6.996-28.667-18.336c-1.876-4.77-7-28.327,16.333-19.664c0,0-18.363-34.447-36-1.972
		c-4.477,8.244-27.333,64.302,21.333,71.302h-17c0,0,17.667,27.334,47,6.334l-9.667,11.666
		C187.691,369.098,219.015,377.098,228.52,345.098z"/>
	<path fill="#282A34" stroke="#000000" stroke-width="3" stroke-miterlimit="10" d="M231.691,342.766
		c-0.136-11.932,1.667-31.871,41-24.437c11.79,1.664,19.765,1.83,26.001,0c10.364-3.043,33.623-25.834,15.332-40.395
		c-3.011-2.396-9.333-3.831-13.333,3.833c0,0-12.252-37.794,23.667-24.333c5.117,1.917,36.39,16.873,18.666,57.669
		c-4.1,9.438-11.333,22.996-32.333,27.662l15,2c0,0-26.666,18.334-50.333,13l13.863,6
		C289.221,363.766,232.198,387.221,231.691,342.766z"/>
	<g>
		<path d="M184.831,321.781c0,0-0.229,0.049-0.693,0.113c-0.462,0.08-1.09,0.133-1.846,0.207c-0.378,0.035-0.788,0.043-1.219,0.066
			c-0.433,0.018-0.886,0.049-1.356,0.032c-0.469-0.006-0.954-0.012-1.446-0.016c-0.491,0.008-0.99-0.062-1.485-0.088
			c-0.496-0.037-0.992-0.074-1.48-0.111c-0.486-0.055-0.962-0.135-1.422-0.199c-0.459-0.067-0.903-0.133-1.324-0.192
			c-0.422-0.047-0.811-0.164-1.174-0.238c-1.442-0.326-2.403-0.543-2.403-0.543s0.979,0.094,2.446,0.234
			c0.366,0.024,0.758,0.092,1.181,0.086c0.42,0.008,0.864,0.016,1.322,0.022c0.458,0.004,0.929,0.023,1.408,0.019
			c0.479-0.025,0.965-0.052,1.451-0.076c0.484-0.035,0.97-0.029,1.443-0.101c0.474-0.055,0.938-0.108,1.39-0.159
			c0.451-0.043,0.88-0.129,1.288-0.199c0.405-0.074,0.793-0.129,1.144-0.207c0.699-0.16,1.286-0.287,1.661-0.404
			c0.378-0.1,0.624-0.184,0.624-0.184L184.831,321.781z"/>
	</g>
	<g>
		<path d="M225.986,349.389c0,0-0.04-0.074-0.117-0.219c-0.072-0.125-0.181-0.31-0.321-0.55c-0.316-0.504-0.802-1.245-1.506-2.143
			c-0.71-0.889-1.61-1.955-2.782-3.041c-0.292-0.273-0.593-0.555-0.903-0.846c-0.321-0.275-0.672-0.539-1.021-0.822
			c-0.355-0.273-0.702-0.58-1.089-0.85c-0.394-0.263-0.795-0.529-1.206-0.804c-1.642-1.1-3.569-2.057-5.684-2.895
			c-1.05-0.438-2.197-0.699-3.336-1.072c-1.158-0.305-2.378-0.479-3.601-0.734c-1.238-0.172-2.516-0.231-3.8-0.36
			c-1.29-0.068-2.604,0.02-3.929,0.02c-0.664-0.014-1.324,0.063-1.988,0.146c-0.665,0.078-1.331,0.153-1.999,0.229
			c-1.329,0.133-2.713,0.353-4.073,0.537c-5.466,0.762-11.104,1.004-16.246,0.006c-2.559-0.512-4.993-1.276-7.122-2.379
			c-2.136-1.082-3.979-2.434-5.47-3.883c-1.492-1.451-2.654-2.973-3.547-4.396c-0.877-1.437-1.522-2.753-1.99-3.861
			c-0.223-0.56-0.422-1.057-0.596-1.49c-0.146-0.442-0.271-0.82-0.373-1.125c-0.201-0.61-0.309-0.938-0.309-0.938
			s0.118,0.321,0.34,0.926c0.111,0.301,0.249,0.674,0.41,1.108c0.188,0.429,0.403,0.919,0.646,1.468
			c0.503,1.086,1.188,2.373,2.104,3.762c0.931,1.379,2.127,2.836,3.636,4.205c1.507,1.367,3.346,2.619,5.452,3.6
			c2.102,0.998,4.485,1.658,6.983,2.07c5.024,0.795,10.497,0.379,15.854-0.555c1.354-0.232,2.673-0.488,4.061-0.679
			c0.688-0.102,1.374-0.205,2.057-0.307c0.685-0.111,1.367-0.213,2.058-0.223c1.376-0.049,2.743-0.187,4.097-0.16
			c1.353,0.084,2.698,0.104,4.011,0.244c1.305,0.221,2.604,0.367,3.849,0.647c1.228,0.353,2.464,0.597,3.607,1.025
			c2.3,0.817,4.42,1.785,6.241,2.914c0.456,0.283,0.902,0.559,1.339,0.83c0.431,0.278,0.82,0.596,1.217,0.883
			c0.391,0.295,0.78,0.57,1.143,0.858c0.35,0.306,0.688,0.603,1.018,0.89c1.321,1.145,2.352,2.281,3.171,3.238
			c0.813,0.967,1.394,1.784,1.778,2.358c0.194,0.31,0.343,0.547,0.444,0.705c0.083,0.146,0.127,0.221,0.127,0.221L225.986,349.389z"
			/>
	</g>
	<g>
		<path d="M218.287,361.398c0.001,0.008-0.058-0.184-0.144-0.383c-0.068-0.205-0.256-0.58-0.474-1.037
			c-0.258-0.449-0.548-1.008-0.979-1.605c-0.385-0.622-0.942-1.247-1.522-1.948c-0.641-0.65-1.313-1.386-2.154-2.031
			c-0.778-0.723-1.757-1.281-2.713-1.949c-0.504-0.291-1.04-0.553-1.571-0.838c-0.53-0.287-1.07-0.574-1.658-0.777
			c-0.576-0.229-1.157-0.457-1.74-0.688c-0.577-0.256-1.208-0.361-1.813-0.549l-1.834-0.511c-0.625-0.108-1.249-0.219-1.866-0.325
			c-0.621-0.105-1.235-0.211-1.844-0.316c-0.612-0.078-1.224-0.1-1.823-0.15c-0.601-0.045-1.19-0.09-1.77-0.133
			c-0.29-0.021-0.576-0.043-0.859-0.063c-0.284,0.004-0.563,0.006-0.84,0.008c-1.108,0.016-2.157,0.029-3.125,0.043
			c-0.972-0.021-1.854,0.102-2.639,0.17c-0.786,0.074-1.47,0.139-2.035,0.191c-1.13,0.106-1.776,0.168-1.776,0.168
			s0.64-0.107,1.759-0.295c0.561-0.095,1.24-0.209,2.021-0.341c0.782-0.125,1.661-0.311,2.636-0.362
			c0.975-0.082,2.029-0.175,3.146-0.271c0.279-0.022,0.563-0.045,0.851-0.067c0.288,0,0.579,0,0.874,0
			c0.59,0.002,1.193,0.004,1.808,0.004c0.613,0.01,1.24-0.015,1.872,0.021c0.632,0.062,1.271,0.123,1.914,0.187
			c0.646,0.065,1.297,0.133,1.95,0.198c0.646,0.13,1.294,0.261,1.943,0.39c0.645,0.149,1.313,0.217,1.938,0.438
			c0.635,0.197,1.267,0.396,1.894,0.593c0.637,0.172,1.235,0.436,1.828,0.7c0.592,0.265,1.188,0.506,1.756,0.781
			c1.089,0.644,2.201,1.187,3.122,1.916c0.979,0.65,1.795,1.408,2.565,2.096c0.717,0.74,1.396,1.41,1.899,2.099
			c0.542,0.649,0.939,1.287,1.282,1.801c0.313,0.545,0.555,0.951,0.715,1.311c0.17,0.353,0.216,0.478,0.216,0.478L218.287,361.398z"
			/>
	</g>
	<g>
		<path d="M232.817,350.047c0,0,0.511,0.043,1.468,0.127c0.962,0.076,2.384,0.17,4.195,0.254c1.813,0.084,4.019,0.147,6.55,0.17
			c2.532,0.006,5.392-0.002,8.507-0.139c3.116-0.104,6.486-0.347,10.048-0.656c3.553-0.373,7.302-0.795,11.143-1.461
			c3.854-0.603,7.786-1.478,11.761-2.451c3.948-1.064,7.945-2.234,11.816-3.746c0.968-0.377,1.945-0.732,2.905-1.125l2.84-1.266
			l1.417-0.629c0.467-0.222,0.918-0.47,1.377-0.701c0.915-0.474,1.827-0.943,2.736-1.412c0.915-0.461,1.76-1.031,2.637-1.539
			c0.862-0.531,1.75-1.016,2.579-1.578c0.822-0.574,1.638-1.145,2.449-1.711l1.213-0.848c0.396-0.287,0.763-0.613,1.145-0.916
			c1.499-1.242,3.037-2.396,4.343-3.748c0.678-0.65,1.347-1.293,2.008-1.931c0.654-0.641,1.214-1.356,1.813-2.02
			c0.589-0.674,1.17-1.336,1.743-1.99c0.542-0.678,1.021-1.389,1.523-2.063c0.496-0.683,0.982-1.351,1.461-2.009
			c0.482-0.653,0.84-1.372,1.254-2.034c0.398-0.672,0.79-1.332,1.171-1.976c0.19-0.321,0.38-0.641,0.565-0.955
			c0.157-0.33,0.313-0.655,0.464-0.979c0.608-1.291,1.186-2.516,1.728-3.667c0.514-1.163,0.855-2.31,1.248-3.338
			c0.359-1.041,0.745-1.981,0.997-2.86c0.914-3.545,1.436-5.57,1.436-5.57s-0.477,2.039-1.312,5.606
			c-0.232,0.886-0.597,1.836-0.935,2.889c-0.369,1.041-0.688,2.199-1.178,3.379c-0.519,1.169-1.071,2.413-1.653,3.726
			c-0.146,0.326-0.295,0.658-0.445,0.994c-0.181,0.319-0.363,0.645-0.549,0.975c-0.369,0.656-0.747,1.328-1.135,2.016
			c-0.401,0.677-0.747,1.41-1.219,2.08c-0.467,0.674-0.944,1.361-1.428,2.062c-0.492,0.692-0.962,1.422-1.495,2.119
			c-0.563,0.674-1.136,1.358-1.716,2.053c-0.593,0.684-1.145,1.422-1.792,2.086c-0.655,0.658-1.317,1.324-1.988,1.998
			c-1.295,1.399-2.823,2.604-4.317,3.897c-0.38,0.316-0.745,0.654-1.141,0.955l-1.209,0.888c-0.812,0.594-1.626,1.188-2.447,1.791
			c-0.828,0.592-1.716,1.102-2.579,1.661c-0.878,0.533-1.727,1.134-2.643,1.619c-0.912,0.498-1.826,0.996-2.744,1.496
			c-0.461,0.246-0.915,0.51-1.384,0.742l-1.422,0.672l-2.854,1.349c-0.965,0.422-1.947,0.805-2.921,1.209
			c-3.896,1.622-7.92,2.897-11.901,4.067c-4.006,1.078-7.976,2.055-11.864,2.752c-3.878,0.763-7.665,1.273-11.257,1.732
			c-3.6,0.395-7.01,0.717-10.166,0.895c-3.155,0.209-6.054,0.281-8.622,0.332c-2.57,0.037-4.813,0.021-6.66-0.022
			c-1.849-0.045-3.301-0.105-4.296-0.164c-1-0.064-1.533-0.099-1.533-0.099L232.817,350.047z"/>
	</g>
	<path opacity="0.7" fill="#71808B" enable-background="new    " d="M160.641,283.649c0,0-25,13.334,0,42.667
		c7,5,12,10.998,34.667,4.332c4.333-0.666,18.666-5.666,28.333,5.668c0,0-9.696-19.309-32.333-12c-4,1.332-23.333,2.666-30.833-9
		C156.808,309.648,147.974,297.316,160.641,283.649z"/>
	<path opacity="0.7" fill="#71808B" enable-background="new    " d="M233.691,329.04c0,0,6.789-17.715,42.456-9.381
		c6.167,1.168,26.759,5.183,40.629-14.743c8.038-12.922,15.204-25.814,15.538-27.481c0,0,0,43.561-31.418,51.7
		c-15.107,3.912-21.31,4.469-38.871,3.551c-3.833-1.334-9.544,0.611-21.877-2.082L233.691,329.04z"/>
	<g>
		<path d="M233.547,326.445c0,0,1.614,0.4,4.489,1.021c2.871,0.623,6.986,1.471,11.953,2.325c4.967,0.857,10.786,1.736,17.051,2.326
			c3.132,0.295,6.375,0.517,9.67,0.597c3.293,0.071,6.645,0.022,9.955-0.336c1.653-0.181,3.3-0.425,4.903-0.793
			c0.772-0.169,1.626-0.404,2.402-0.632c0.781-0.231,1.558-0.483,2.328-0.77c3.078-1.115,5.978-2.586,8.615-4.273
			c2.645-1.68,5.029-3.578,7.144-5.537c2.117-1.954,3.962-3.977,5.546-5.938c3.183-3.92,5.307-7.588,6.642-10.213
			c0.673-1.313,1.129-2.381,1.444-3.105c0.298-0.732,0.457-1.124,0.457-1.124s-0.147,0.396-0.425,1.138
			c-0.296,0.732-0.723,1.813-1.359,3.148c-1.264,2.668-3.29,6.41-6.385,10.449c-1.541,2.021-3.345,4.115-5.434,6.156
			c-2.084,2.043-4.452,4.039-7.102,5.83c-2.642,1.797-5.567,3.389-8.705,4.627c-0.779,0.313-1.582,0.6-2.396,0.867
			c-0.823,0.264-1.582,0.5-2.445,0.715c-1.662,0.432-3.354,0.729-5.049,0.961c-3.393,0.463-6.805,0.604-10.154,0.621
			c-3.35,0.012-6.641-0.121-9.816-0.332c-6.354-0.425-12.249-1.15-17.283-1.877c-5.035-0.728-9.209-1.468-12.127-2.017
			c-2.916-0.549-4.59-0.914-4.59-0.914L233.547,326.445z"/>
	</g>
</g>
<radialGradient id="SVGID_1_" cx="295.1028" cy="200.4631" r="34.7229" gradientTransform="matrix(1 0 0 -1 -20.7202 604.3618)" gradientUnits="userSpaceOnUse">
	<stop  offset="0" style="stop-color:#FFFFFF"/>
	<stop  offset="0.0557" style="stop-color:#F7DAD9"/>
	<stop  offset="0.1286" style="stop-color:#EDB1AF"/>
	<stop  offset="0.2077" style="stop-color:#E58D8A"/>
	<stop  offset="0.2922" style="stop-color:#DE6F6B"/>
	<stop  offset="0.3835" style="stop-color:#D95651"/>
	<stop  offset="0.4846" style="stop-color:#D4433D"/>
	<stop  offset="0.6004" style="stop-color:#D1352F"/>
	<stop  offset="0.744" style="stop-color:#D02D27"/>
	<stop  offset="1" style="stop-color:#CF2B25"/>
</radialGradient>
<path fill="url(#SVGID_1_)" d="M234.609,393.793c0,0-18.166,44.194,41.167,33.098c8.102-2.701,25.737-9.574,35.019-20.67
	c5.567-6.658,8.128-14.834,3.814-24.541c0,0-28.166-14.887-53.833,27.113l8.833-16C269.609,392.793,245.566,385.357,234.609,393.793
	z"/>
<g>
	<path d="M218.441,423.04c0,0-0.096,0.064-0.282,0.191c-0.191,0.133-0.478,0.338-0.847,0.619c-0.733,0.568-1.799,1.445-3.013,2.699
		c-1.203,1.252-2.588,2.879-3.703,4.983c-1.137,2.082-1.958,4.688-1.827,7.564c0.04,1.438,0.423,2.912,0.928,4.402
		c0.621,1.452,1.339,2.95,2.38,4.331c1.984,2.816,4.698,5.4,7.764,7.74c3.08,2.328,6.472,4.506,10.088,6.431
		c3.569,1.946,7.415,3.575,11.36,4.829c1.975,0.632,3.982,1.154,6.009,1.562c2.021,0.422,4.061,0.727,6.095,0.908
		c4.067,0.387,8.115,0.317,11.981-0.191c3.869-0.494,7.553-1.391,10.946-2.541c1.704-0.559,3.313-1.234,4.875-1.877
		c1.525-0.725,3.021-1.383,4.389-2.152c2.784-1.446,5.191-3.032,7.306-4.463c2.079-1.479,3.857-2.821,5.26-4.004
		c1.444-1.133,2.483-2.135,3.228-2.776c0.733-0.654,1.126-1.005,1.126-1.005s-0.384,0.357-1.104,1.027
		c-0.729,0.66-1.747,1.688-3.167,2.854c-1.379,1.215-3.13,2.6-5.183,4.131c-2.088,1.479-4.472,3.127-7.241,4.646
		c-1.36,0.808-2.851,1.504-4.375,2.269c-1.56,0.686-3.171,1.403-4.882,2.008c-3.406,1.24-7.124,2.236-11.047,2.824
		c-3.921,0.606-8.048,0.771-12.212,0.469c-2.083-0.141-4.174-0.404-6.252-0.791c-2.082-0.369-4.15-0.859-6.188-1.459
		c-4.077-1.197-8.032-2.769-11.756-4.693c-3.718-1.873-7.242-4.02-10.487-6.36c-3.229-2.355-6.157-5-8.402-8.033
		c-1.164-1.48-2.026-3.146-2.765-4.793c-0.628-1.701-1.108-3.424-1.2-5.14c-0.238-3.432,0.688-6.559,1.937-8.969
		c1.232-2.449,2.735-4.287,4.034-5.703c1.311-1.416,2.457-2.403,3.263-3.057c0.406-0.324,0.727-0.566,0.949-0.729
		c0.23-0.161,0.351-0.247,0.351-0.247L218.441,423.04z"/>
</g>
<g>
	<path d="M237.97,466.006c0,0,0.585,0.385,1.669,1.01c1.083,0.621,2.65,1.481,4.586,2.406c1.938,0.92,4.237,1.922,6.769,2.813
		c1.266,0.443,2.583,0.881,3.94,1.258c1.354,0.392,2.748,0.72,4.149,1.015c1.404,0.271,2.817,0.518,4.22,0.666
		c0.7,0.084,1.396,0.151,2.086,0.188c0.689,0.058,1.372,0.078,2.043,0.088c1.343,0.029,2.645-0.016,3.871-0.123
		c0.616-0.032,1.209-0.116,1.785-0.194c0.577-0.066,1.13-0.152,1.657-0.265c1.063-0.178,2.015-0.44,2.863-0.655
		c0.84-0.246,1.563-0.494,2.161-0.689c1.169-0.465,1.837-0.729,1.837-0.729s-0.663,0.28-1.821,0.771
		c-0.595,0.209-1.313,0.473-2.15,0.736c-0.846,0.233-1.796,0.521-2.859,0.721c-0.526,0.125-1.082,0.223-1.659,0.303
		c-0.576,0.093-1.173,0.188-1.791,0.234c-1.232,0.137-2.542,0.209-3.896,0.209c-0.677,0.006-1.366-0.002-2.062-0.045
		c-0.697-0.021-1.4-0.076-2.108-0.146c-1.418-0.118-2.848-0.336-4.273-0.577c-1.42-0.269-2.835-0.57-4.21-0.935
		c-1.38-0.35-2.719-0.764-4.008-1.184c-2.577-0.847-4.921-1.81-6.901-2.697c-3.958-1.785-6.438-3.336-6.438-3.336L237.97,466.006z"
		/>
</g>
<line fill="none" stroke="#000000" stroke-miterlimit="10" x1="310.608" y1="405.016" x2="315.108" y2="414.354"/>
<line fill="none" stroke="#000000" stroke-miterlimit="10" x1="290.358" y1="421.204" x2="296.708" y2="436.736"/>
<path fill="none" stroke="#000000" stroke-miterlimit="10" d="M261.233,428.854c0,0,0.25,15.285,5.625,18.5"/>
<path fill="none" stroke="#000000" stroke-miterlimit="10" d="M237.394,422.604c0,0-1.207,16.311,1.043,19.061"/>
<path fill="none" stroke="#000000" stroke-miterlimit="10" d="M231.313,410.165c0,0-9.748,2.873-8.019,20.748"/>
<line fill="none" stroke="#000000" stroke-miterlimit="10" x1="224.294" y1="399.854" x2="232.313" y2="402.706"/>
<path fill="none" stroke="#000000" stroke-miterlimit="10" d="M216.858,365.947c0,0-2.984,5.781,3.188,11.59"/>
<path fill="none" stroke="#000000" stroke-miterlimit="10" d="M237.392,365.104c0,0,4.561,17.174,9.117,19.07"/>
<path fill="#F59669" d="M233.606,440.077c0,0,30,16.438,56.752,1.625c8.099-4.483,9.43-6.467,14.368-11.85c0,0-2.39,6.729-5.62,10.6
	c-3.625,4.341-24.093,23.716-56.625,8.75C240.361,448.229,231.475,441.029,233.606,440.077z"/>
<polygon fill="#976349" points="318.043,121.948 314.731,124.14 318.731,126.953 320.668,124.39 "/>
<polygon fill="#976349" points="362.864,163.778 359.551,165.97 363.551,168.783 365.489,166.22 "/>
<path fill="#D09E73" d="M328.648,59.661c0,0,87.017-46.691,104.333-26C432.981,33.661,398.866,135.245,328.648,59.661z"/>
<g id="logo2">
	<path fill="#9D1B1D" stroke="#000000" stroke-width="2" stroke-miterlimit="10" d="M168.68,422.604
		c0,0-75.195,77.587-122.205-18.032c0,0,23.687,5.264,34.212-6.142c0,0,23.687,57.897,81.584,0L168.68,422.604z"/>
	<path fill="#FFFFFF" stroke="#000000" stroke-width="3" stroke-miterlimit="10" d="M35.948,385.565c0,0-1.822,18.76,23.986,20.203
		c12.76,0,31.279-3.391,22.945-23.567c0,0,33.274-10.966,1.943-46.056c0,0,12.53-7.896-9.84-26.756c0,0,9.211-27.633-34.212-17.983
		c0,0,4.825-28.948-23.247-23.246c-7.018,2.632-20.614,7.457-14.474,21.054c5.263,5.264,10.965,7.457,16.667,21.932
		c0,0-6.579,23.247,5.264,28.071c0,0-5.702,21.493,9.211,22.37C34.193,361.586,28.931,378.402,35.948,385.565z"/>
	<g>
		<path d="M49.881,289.813c0,0-2.741,0.806-6.578,2.523c-1.917,0.858-4.101,1.96-6.332,3.302c-1.122,0.661-2.23,1.418-3.343,2.202
			c-1.112,0.785-2.198,1.64-3.232,2.551c-1.054,0.89-2.045,1.848-2.98,2.829c-0.909,1.005-1.81,1.993-2.587,3.026
			c-0.782,1.03-1.501,2.057-2.14,3.062c-0.307,0.512-0.604,1.009-0.893,1.49c-0.269,0.493-0.526,0.973-0.775,1.432
			c-0.466,0.934-0.886,1.802-1.229,2.585c-0.311,0.794-0.641,1.474-0.841,2.057c-0.421,1.161-0.682,1.829-0.682,1.829
			s0.096-0.7,0.297-1.938c0.099-0.618,0.296-1.352,0.502-2.201c0.228-0.843,0.522-1.788,0.902-2.799
			c0.201-0.502,0.411-1.025,0.628-1.566c0.243-0.53,0.521-1.066,0.792-1.627c0.577-1.1,1.229-2.245,2.013-3.357
			c0.775-1.117,1.632-2.238,2.592-3.3c0.97-1.051,1.997-2.081,3.094-3.031c1.104-0.941,2.26-1.82,3.438-2.623
			c1.17-0.813,2.391-1.507,3.581-2.147c1.188-0.649,2.385-1.176,3.522-1.655c1.141-0.475,2.24-0.868,3.268-1.187
			C47.006,289.958,49.881,289.813,49.881,289.813z"/>
	</g>
	<g>
		<path d="M76.697,312.884c0.008,0.009-0.177-0.145-0.429-0.311c-0.243-0.182-0.682-0.444-1.239-0.782
			c-0.581-0.298-1.263-0.721-2.119-1.061c-0.427-0.174-0.866-0.396-1.356-0.564c-0.492-0.168-1.009-0.343-1.549-0.524
			c-0.537-0.197-1.128-0.289-1.725-0.448c-0.599-0.151-1.22-0.305-1.875-0.37c-0.651-0.09-1.322-0.182-2.008-0.275
			c-0.692-0.022-1.4-0.044-2.122-0.066c-0.359-0.004-0.726-0.042-1.092-0.019c-0.366,0.028-0.735,0.06-1.105,0.089
			c-0.742,0.065-1.498,0.104-2.257,0.192c-0.75,0.148-1.506,0.299-2.265,0.448l-1.144,0.227c-0.38,0.082-0.745,0.229-1.118,0.339
			c-1.479,0.499-3.01,0.879-4.392,1.588c-1.398,0.655-2.84,1.191-4.082,2.007c-1.263,0.769-2.545,1.429-3.66,2.208
			c-1.103,0.804-2.144,1.564-3.104,2.266c-0.474,0.36-0.96,0.669-1.367,1.029c-0.408,0.359-0.795,0.7-1.158,1.021
			c-0.728,0.642-1.362,1.199-1.886,1.66c-1.047,0.924-1.646,1.45-1.646,1.45s0.565-0.562,1.557-1.543
			c0.496-0.492,1.099-1.09,1.79-1.774c0.347-0.344,0.715-0.708,1.104-1.094c0.387-0.387,0.854-0.724,1.311-1.112
			c0.928-0.766,1.934-1.594,2.997-2.47c1.082-0.854,2.338-1.6,3.581-2.458c1.219-0.902,2.654-1.541,4.055-2.298
			c1.38-0.812,2.937-1.302,4.446-1.909c0.382-0.139,0.754-0.312,1.146-0.421l1.183-0.308c0.789-0.204,1.575-0.408,2.354-0.609
			c0.793-0.141,1.591-0.231,2.375-0.348c0.395-0.054,0.785-0.108,1.173-0.162c0.39-0.047,0.78-0.032,1.166-0.051
			c0.775-0.021,1.537-0.041,2.282-0.061c0.745,0.058,1.476,0.113,2.185,0.168c0.715,0.032,1.397,0.155,2.059,0.281
			c0.659,0.133,1.311,0.202,1.911,0.38c0.604,0.166,1.183,0.325,1.732,0.477c0.551,0.156,1.053,0.37,1.535,0.536
			c0.972,0.324,1.77,0.748,2.445,1.049c0.659,0.347,1.177,0.618,1.55,0.859c0.174,0.11,0.309,0.194,0.398,0.251
			c0.081,0.055,0.122,0.082,0.122,0.082L76.697,312.884z"/>
	</g>
	<g>
		<path d="M85.459,339.11c0,0-0.02-0.04-0.057-0.117c-0.023-0.041-0.06-0.102-0.105-0.18c-0.105-0.156-0.324-0.488-0.68-0.816
			c-0.155-0.188-0.388-0.347-0.633-0.528c-0.124-0.089-0.242-0.194-0.385-0.284c-0.15-0.078-0.307-0.159-0.468-0.242
			c-0.161-0.087-0.328-0.176-0.499-0.268c-0.179-0.081-0.383-0.131-0.581-0.202c-0.407-0.118-0.808-0.321-1.295-0.365
			c-0.475-0.07-0.963-0.183-1.485-0.237c-0.533-0.013-1.085-0.025-1.65-0.04c-0.567-0.055-1.163,0.085-1.768,0.124
			c-0.604,0.086-1.231,0.071-1.855,0.243c-1.248,0.304-2.573,0.477-3.861,0.95c-1.296,0.427-2.643,0.787-3.919,1.365
			c-0.647,0.266-1.294,0.529-1.939,0.795c-0.647,0.257-1.291,0.523-1.902,0.847c-1.242,0.611-2.464,1.214-3.646,1.797
			c-1.177,0.598-2.266,1.269-3.327,1.854c-1.05,0.604-2.06,1.151-2.965,1.702c-3.578,2.277-5.962,3.798-5.962,3.798
			s2.283-1.676,5.706-4.19c0.87-0.61,1.844-1.227,2.858-1.902c1.024-0.659,2.077-1.406,3.222-2.088
			c1.156-0.668,2.35-1.357,3.563-2.06c0.599-0.367,1.232-0.683,1.876-0.988c0.64-0.313,1.281-0.628,1.925-0.941
			c1.265-0.676,2.631-1.146,3.948-1.676c1.299-0.576,2.693-0.864,4-1.269c0.647-0.223,1.341-0.264,1.991-0.397
			c0.663-0.09,1.292-0.274,1.946-0.266c0.648-0.025,1.279-0.052,1.889-0.076c0.616,0.021,1.22,0.109,1.797,0.162
			c0.58,0.024,1.129,0.229,1.655,0.353c0.262,0.073,0.521,0.127,0.767,0.218c0.241,0.105,0.476,0.209,0.703,0.309
			c0.228,0.104,0.447,0.202,0.659,0.298c0.207,0.11,0.396,0.245,0.582,0.361c0.371,0.238,0.714,0.456,0.985,0.722
			c0.582,0.482,0.95,0.938,1.23,1.315c0.135,0.198,0.251,0.381,0.298,0.46c0.042,0.075,0.063,0.113,0.063,0.113L85.459,339.11z"/>
	</g>
	<g>
		<path d="M54.788,373.866c0,0,1.945-0.438,4.865-1.099c0.715-0.173,1.488-0.359,2.308-0.558c0.817-0.179,1.666-0.432,2.549-0.639
			c0.874-0.241,1.776-0.489,2.693-0.741c0.9-0.299,1.843-0.512,2.742-0.848c0.915-0.292,1.829-0.587,2.709-0.928
			c0.442-0.165,0.885-0.322,1.324-0.473c0.427-0.176,0.851-0.351,1.266-0.521c0.42-0.166,0.833-0.329,1.237-0.488
			c0.395-0.183,0.78-0.359,1.156-0.533c0.757-0.341,1.497-0.635,2.134-0.985c0.646-0.34,1.263-0.623,1.809-0.885
			c0.512-0.307,0.981-0.551,1.366-0.76c0.773-0.415,1.247-0.632,1.247-0.632s-0.295,0.41-0.867,1.093
			c-0.288,0.341-0.636,0.762-1.061,1.22c-0.446,0.429-0.963,0.904-1.548,1.402c-0.566,0.529-1.239,1.017-1.967,1.514
			c-0.366,0.248-0.741,0.503-1.125,0.765c-0.397,0.235-0.815,0.456-1.234,0.691c-0.425,0.229-0.855,0.46-1.293,0.693
			c-0.449,0.206-0.907,0.409-1.373,0.605c-0.918,0.428-1.891,0.75-2.86,1.076c-0.969,0.34-1.969,0.56-2.942,0.808
			c-0.98,0.221-1.956,0.389-2.899,0.528c-0.948,0.111-1.862,0.23-2.737,0.263c-0.871,0.059-1.699,0.057-2.461,0.037
			c-0.76,0.01-1.46-0.07-2.075-0.112c-0.617-0.06-1.152-0.131-1.592-0.207C55.28,374.016,54.788,373.866,54.788,373.866z"/>
	</g>
	<g>
		<path d="M69.633,371.656c0,0,0.188,0.395,0.575,1.061c0.389,0.661,0.951,1.602,1.729,2.643c0.771,1.045,1.776,2.178,2.953,3.209
			c0.604,0.497,1.248,0.97,1.933,1.365c0.691,0.375,1.406,0.721,2.154,0.891c0.747,0.165,1.498,0.258,2.229,0.162
			c0.729-0.053,1.426-0.253,2.104-0.423c0.343-0.086,0.67-0.225,1.009-0.299c0.33-0.115,0.652-0.247,0.98-0.343
			c0.325-0.105,0.627-0.266,0.932-0.389c0.313-0.106,0.607-0.244,0.888-0.386c0.278-0.141,0.561-0.26,0.831-0.374
			c0.261-0.133,0.5-0.271,0.743-0.381c0.482-0.226,0.907-0.432,1.254-0.613c0.701-0.353,1.149-0.522,1.149-0.522l0.209,0.215
			c0,0-0.204,0.424-0.645,1.111c-0.113,0.17-0.232,0.364-0.375,0.565c-0.155,0.19-0.322,0.396-0.501,0.616
			c-0.359,0.442-0.796,0.921-1.34,1.382c-0.511,0.497-1.162,0.937-1.869,1.38c-0.366,0.21-0.747,0.419-1.154,0.604
			c-0.419,0.169-0.855,0.32-1.311,0.453c-0.928,0.209-1.928,0.33-2.94,0.214c-1.009-0.074-2.015-0.322-2.945-0.693
			c-0.948-0.342-1.788-0.872-2.563-1.42c-0.771-0.562-1.421-1.215-2.015-1.861c-0.566-0.668-1.093-1.321-1.512-1.99
			c-0.432-0.659-0.797-1.303-1.108-1.905c-1.254-2.413-1.681-4.163-1.681-4.163L69.633,371.656z"/>
	</g>
	<g>
		<path d="M77.744,368.92c0,0-0.007,0.042-0.02,0.119c-0.011,0.053-0.021,0.153-0.03,0.302c-0.004,0.14-0.011,0.317,0.01,0.515
			c0.011,0.201,0.053,0.416,0.11,0.65c0.077,0.219,0.148,0.474,0.303,0.688c0.12,0.244,0.331,0.437,0.553,0.639
			c0.126,0.09,0.255,0.181,0.385,0.271c0.146,0.075,0.307,0.131,0.463,0.201c0.303,0.17,0.693,0.173,1.047,0.274
			c0.372,0.046,0.76,0.046,1.139,0.072c0.382-0.009,0.762-0.054,1.131-0.077c0.373-0.012,0.724-0.104,1.063-0.159
			c0.339-0.063,0.659-0.121,0.955-0.177c1.169-0.317,1.948-0.529,1.948-0.529s-0.742,0.331-1.854,0.828
			c-0.288,0.103-0.603,0.211-0.934,0.327c-0.334,0.11-0.679,0.261-1.062,0.332c-0.38,0.085-0.77,0.192-1.177,0.267
			c-0.415,0.037-0.837,0.103-1.27,0.114c-0.437-0.047-0.881,0.01-1.319-0.135c-0.219-0.057-0.44-0.102-0.655-0.175
			c-0.209-0.102-0.415-0.2-0.617-0.298c-0.38-0.237-0.762-0.513-1.021-0.852c-0.298-0.316-0.479-0.679-0.65-1.008
			c-0.148-0.337-0.26-0.654-0.324-0.94c-0.074-0.286-0.107-0.539-0.134-0.75c-0.021-0.206-0.032-0.383-0.03-0.521
			c0-0.11,0-0.169,0-0.169L77.744,368.92z"/>
	</g>
	<g>
		<path d="M36.681,352.965c0,0,0.021-0.076,0.057-0.226c0.01-0.037,0.02-0.078,0.03-0.124l0.007-0.028l-0.002,0.019
			c0.015,0.015-0.035,0.021,0.063,0.135c0.204,0.085,0.224-0.047,0.23-0.032c0.03-0.048,0.021-0.046,0.027-0.055l-0.011,0.06
			c-0.024,0.108-0.053,0.235-0.083,0.38c-0.121,0.578-0.284,1.43-0.449,2.52c-0.322,2.177-0.71,5.314-0.669,9.072
			c0.029,1.876,0.15,3.907,0.505,6.008c0.352,2.097,0.884,4.284,1.804,6.371c0.894,2.097,2.204,4.065,3.891,5.676
			c1.707,1.593,3.798,2.775,6.063,3.495c2.275,0.693,4.681,1.006,7.065,0.991c2.385-0.028,4.747-0.24,7.019-0.627
			c2.276-0.351,4.476-0.773,6.56-1.241c2.082-0.469,4.042-0.992,5.856-1.475c0.899-0.271,1.77-0.51,2.598-0.737
			c0.823-0.247,1.604-0.48,2.34-0.701c1.473-0.446,2.757-0.837,3.814-1.157c2.109-0.676,3.341-1.017,3.341-1.017l0.122,0.273
			c0,0-1.09,0.661-3.049,1.734c-1.974,1.039-4.827,2.477-8.407,3.88c-0.901,0.335-1.842,0.684-2.814,1.043
			c-0.992,0.31-2.006,0.666-3.074,0.965c-2.12,0.646-4.419,1.147-6.83,1.523c-2.417,0.328-4.962,0.506-7.558,0.345
			c-2.591-0.158-5.243-0.607-7.767-1.531c-2.521-0.925-4.872-2.395-6.729-4.294c-1.838-1.916-3.187-4.182-4.051-6.487
			c-0.886-2.306-1.364-4.633-1.599-6.838c-0.244-2.208-0.249-4.3-0.17-6.218c0.186-3.836,0.735-6.98,1.216-9.151
			c0.239-1.087,0.46-1.934,0.621-2.507c0.042-0.146,0.078-0.271,0.11-0.381l0.031-0.1c0.005-0.006-0.008,0.016,0.019-0.021
			c0.007,0.017,0.026-0.112,0.229-0.023c0.098,0.117,0.048,0.126,0.061,0.145l-0.007,0.035l-0.012,0.041
			c-0.016,0.046-0.028,0.089-0.04,0.124c-0.047,0.146-0.072,0.223-0.072,0.223L36.681,352.965z"/>
	</g>
	<g>
		<path d="M22.923,342.512c0,0,0.078-0.268,0.214-0.732c0.138-0.457,0.352-1.096,0.624-1.854c0.554-1.513,1.387-3.486,2.417-5.354
			c0.521-0.933,1.084-1.837,1.663-2.646c0.305-0.396,0.575-0.792,0.874-1.139c0.302-0.344,0.574-0.675,0.846-0.962
			c0.283-0.274,0.542-0.527,0.773-0.753c0.223-0.228,0.462-0.383,0.635-0.531c0.356-0.283,0.56-0.445,0.56-0.445
			s-0.171,0.195-0.471,0.539c-0.143,0.177-0.342,0.363-0.52,0.626c-0.182,0.255-0.387,0.543-0.61,0.856
			c-0.21,0.322-0.413,0.688-0.639,1.063c-0.223,0.377-0.412,0.805-0.63,1.227c-0.407,0.865-0.781,1.813-1.109,2.772
			c-0.646,1.929-1.086,3.913-1.344,5.402c-0.124,0.746-0.213,1.368-0.263,1.8c-0.043,0.424-0.067,0.665-0.067,0.665L22.923,342.512z
			"/>
	</g>
	<path fill="#9D1B1D" stroke="#000000" stroke-width="2" stroke-miterlimit="10" d="M338.229,379.146
		c0,0,112.815,26.824,24.708,93.644c0,0-12.37,3.813-18.554-17.579c0,0,38.465-25.104,28.568-44.546l1.619,7.063
		c0,0-5.734-15.801-40.026-22.745"/>
	<path fill="#FFFFFF" stroke="#000000" stroke-width="3" stroke-miterlimit="10" d="M362.303,440.306c0,0-28.378-21.68-36.41,5.948
		c0,0-73.269-9.66-44.609,53.316c0,0-0.435,22.026,17.673,20.412c0,0,5.149,32.315,32.591,18.871
		c7.206-5.658,14.554-7.307,7.266-24.487c0,0,17.929-13.682,11.345-23.809c0,0,28.43,6.558,24.807-23.769
		C369.989,450.129,362.303,440.306,362.303,440.306z"/>
	<g>
		<path d="M280.026,503.29c0,0-0.003-0.121-0.008-0.353c-0.008-0.259,0.001-0.6,0.02-1.022c0.05-0.849,0.138-2.047,0.413-3.444
			c0.107-0.705,0.316-1.448,0.5-2.238c0.243-0.773,0.451-1.604,0.78-2.424c0.158-0.411,0.319-0.828,0.482-1.251
			c0.171-0.418,0.383-0.827,0.575-1.245c0.365-0.846,0.855-1.646,1.317-2.453c0.45-0.813,1.038-1.545,1.539-2.304
			c0.543-0.731,1.146-1.398,1.69-2.067c0.576-0.643,1.192-1.209,1.743-1.771c0.533-0.58,1.161-1,1.673-1.453
			c0.536-0.428,0.992-0.858,1.468-1.15c0.458-0.313,0.858-0.584,1.188-0.808c0.655-0.446,1.03-0.701,1.03-0.701
			s-0.347,0.292-0.954,0.804c-0.302,0.256-0.669,0.564-1.091,0.92c-0.437,0.334-0.846,0.811-1.327,1.282
			c-0.457,0.498-1.021,0.965-1.484,1.588c-0.479,0.604-1.019,1.211-1.508,1.889c-0.458,0.701-0.97,1.396-1.414,2.147
			c-0.403,0.777-0.889,1.521-1.232,2.336c-0.356,0.81-0.738,1.602-0.997,2.43c-0.139,0.408-0.296,0.808-0.415,1.213
			c-0.11,0.406-0.219,0.811-0.326,1.206c-0.227,0.785-0.336,1.573-0.486,2.304c-0.091,0.743-0.215,1.437-0.243,2.085
			c-0.119,1.292-0.083,2.366-0.051,3.101c0.023,0.37,0.045,0.651,0.068,0.816c0.024,0.193,0.037,0.297,0.037,0.297L280.026,503.29z"
			/>
	</g>
	<g>
		<path d="M299.296,526.769c0,0-0.043-0.092-0.124-0.265c-0.094-0.196-0.206-0.466-0.333-0.791
			c-0.253-0.664-0.582-1.607-0.843-2.767c-0.148-0.574-0.251-1.208-0.36-1.875c-0.096-0.668-0.166-1.379-0.208-2.109
			c-0.012-0.735-0.059-1.49,0.014-2.259c0.028-0.383,0.038-0.769,0.082-1.151l0.177-1.15c0.084-0.771,0.336-1.512,0.507-2.246
			c0.185-0.732,0.498-1.417,0.729-2.092c0.254-0.669,0.608-1.27,0.884-1.858c0.263-0.597,0.646-1.09,0.938-1.572
			c0.316-0.47,0.557-0.929,0.866-1.271c0.287-0.355,0.537-0.667,0.742-0.923c0.409-0.508,0.644-0.799,0.644-0.799
			s-0.196,0.317-0.539,0.875c-0.17,0.275-0.377,0.612-0.615,0.998c-0.258,0.37-0.438,0.854-0.688,1.35
			c-0.225,0.507-0.533,1.021-0.712,1.632c-0.193,0.603-0.459,1.211-0.619,1.877c-0.137,0.672-0.353,1.344-0.438,2.053
			c-0.07,0.71-0.222,1.415-0.207,2.139l-0.028,1.073c0.005,0.355,0.042,0.711,0.06,1.062c0.02,0.701,0.152,1.384,0.244,2.04
			c0.123,0.654,0.265,1.281,0.426,1.865c0.174,0.583,0.333,1.131,0.53,1.621c0.358,0.991,0.749,1.771,1.029,2.297
			c0.145,0.268,0.256,0.46,0.327,0.57c0.086,0.135,0.131,0.206,0.131,0.206L299.296,526.769z"/>
	</g>
	<g>
		<path d="M344.504,511.247c0,0-0.365,0.227-1.002,0.62c-0.636,0.385-1.546,0.912-2.655,1.512c-1.105,0.604-2.415,1.269-3.832,1.941
			c-1.419,0.671-2.951,1.343-4.507,1.952c-1.557,0.606-3.127,1.17-4.626,1.613c-0.748,0.227-1.468,0.448-2.166,0.608
			c-0.696,0.167-1.342,0.359-1.958,0.466c-0.61,0.12-1.169,0.23-1.666,0.329c-0.5,0.071-0.937,0.135-1.294,0.186
			c-0.716,0.099-1.125,0.155-1.125,0.155s0.399-0.104,1.101-0.281c0.349-0.092,0.771-0.202,1.257-0.329
			c0.479-0.152,1.018-0.324,1.604-0.512c0.59-0.172,1.208-0.436,1.87-0.675c0.664-0.236,1.345-0.534,2.05-0.839
			c1.413-0.6,2.882-1.323,4.327-2.086c1.444-0.764,2.854-1.585,4.154-2.391c1.297-0.809,2.485-1.594,3.481-2.295
			c1-0.696,1.813-1.301,2.369-1.73c0.546-0.431,0.858-0.676,0.858-0.676L344.504,511.247z"/>
	</g>
	<g>
		<path d="M333.213,516.054c0,0,0.023,0.063,0.069,0.178c0.053,0.138,0.13,0.339,0.195,0.563c0.15,0.46,0.315,1.117,0.431,1.923
			c0.05,0.404,0.1,0.841,0.095,1.313c0.03,0.464-0.046,0.969-0.088,1.474c-0.123,0.508-0.186,1.032-0.414,1.533
			c-0.107,0.25-0.181,0.512-0.319,0.747l-0.423,0.697c-0.29,0.453-0.687,0.83-1.032,1.206c-0.415,0.309-0.789,0.648-1.2,0.888
			c-0.418,0.22-0.821,0.431-1.206,0.63c-0.401,0.14-0.78,0.271-1.132,0.392c-0.342,0.134-0.669,0.208-0.963,0.26
			c-0.29,0.06-0.542,0.11-0.75,0.152c-0.412,0.084-0.647,0.132-0.647,0.132s0.223-0.093,0.611-0.255
			c0.193-0.081,0.428-0.18,0.696-0.292c0.271-0.104,0.569-0.235,0.87-0.43c0.304-0.177,0.633-0.367,0.981-0.569
			c0.309-0.248,0.634-0.509,0.97-0.778c0.318-0.28,0.573-0.638,0.868-0.95c0.217-0.372,0.475-0.721,0.625-1.116l0.214-0.589
			c0.07-0.192,0.079-0.409,0.123-0.604c0.103-0.391,0.056-0.81,0.081-1.186c-0.056-0.394-0.06-0.761-0.159-1.114
			c-0.063-0.353-0.172-0.68-0.271-0.979c-0.211-0.595-0.438-1.074-0.615-1.386c-0.088-0.167-0.152-0.263-0.194-0.329
			c-0.054-0.086-0.083-0.131-0.083-0.131L333.213,516.054z"/>
	</g>
	<path fill="none" stroke="#000000" stroke-width="3" stroke-miterlimit="10" d="M327.774,441.34c0,0-16.563,39.526,27.32,49.794"/>
	<g>
		<path d="M346.46,438.286c0,0-0.163,0.705-0.406,1.93c-0.245,1.224-0.542,2.974-0.803,5.056c-0.121,1.043-0.217,2.172-0.286,3.356
			c-0.083,1.187-0.041,2.433-0.025,3.706c0.068,1.272,0.206,2.577,0.442,3.867c0.233,1.291,0.564,2.58,1.073,3.786
			c0.438,1.237,1.092,2.367,1.775,3.447c0.752,1.029,1.508,2.058,2.444,2.873c0.228,0.209,0.441,0.431,0.676,0.627
			c0.244,0.183,0.482,0.37,0.715,0.563c0.455,0.398,0.948,0.729,1.438,1.041c0.243,0.16,0.481,0.319,0.718,0.477
			c0.25,0.137,0.495,0.271,0.736,0.403c0.486,0.262,0.937,0.566,1.414,0.77c0.945,0.419,1.802,0.868,2.61,1.151
			c0.8,0.304,1.493,0.615,2.089,0.79c1.182,0.396,1.862,0.659,1.862,0.659s-0.717-0.004-1.984-0.074
			c-0.638-0.018-1.398-0.125-2.274-0.271c-0.887-0.103-1.859-0.362-2.928-0.65c-0.54-0.13-1.07-0.364-1.643-0.557
			c-0.284-0.101-0.57-0.211-0.856-0.33c-0.28-0.139-0.565-0.278-0.854-0.422c-0.583-0.278-1.177-0.579-1.747-0.961
			c-0.594-0.345-1.163-0.756-1.709-1.223c-0.274-0.229-0.566-0.446-0.835-0.693c-0.26-0.259-0.521-0.519-0.786-0.78
			c-0.555-0.5-0.986-1.126-1.467-1.716c-0.879-1.24-1.659-2.597-2.193-4.04c-0.559-1.437-0.904-2.933-1.134-4.402
			c-0.252-1.474-0.23-2.936-0.221-4.329c0.056-1.395,0.208-2.729,0.444-3.973c0.204-1.247,0.512-2.398,0.823-3.446
			c0.625-2.099,1.354-3.766,1.919-4.896C346.058,438.891,346.46,438.286,346.46,438.286z"/>
	</g>
	<path fill="#F8986E" d="M345.693,386.44c-14.097-3.771,46.527,12.125,35.766,46.129c-2.412,4.432-3.555,26.58,6.538,1.625
		C390.57,427.828,400.981,401.227,345.693,386.44z"/>
</g>
</svg>
